<?xml version="1.0" encoding="utf-8"?>
<!-- Generator: Adobe Illustrator 27.0.1, SVG Export Plug-In . SVG Version: 6.00 Build 0)  -->
<svg version="1.1" xmlns="http://www.w3.org/2000/svg" xmlns:xlink="http://www.w3.org/1999/xlink" x="0px" y="0px"
	 viewBox="0 0 750 750" style="enable-background:new 0 0 750 750;" xml:space="preserve">
<style type="text/css">
	.st0{fill:#19212E;}
	.st1{fill:#CCCCCB;}
	.st2{fill:#FFFFFF;}
	.st3{fill:#5F9ED2;}
</style>
<g id="BKGD">
	<rect class="st0" width="750" height="750"/>
</g>
<g id="Shadow">
	<g>
		<path class="st1" d="M557.42,507.12c-15.92,16.24-37.19,24.36-63.82,24.36h-89.94c-3.25,0-4.87-1.62-4.87-4.87V195.33
			c0-3.24,1.62-4.87,4.87-4.87h85.56c27.93,0,49.85,7.72,65.77,23.14c15.91,15.43,23.87,37.43,23.87,66.01
			c0,36.38-13.48,61.22-40.44,74.54c-0.65,0.33-0.97,0.65-0.97,0.98c0,0.33,0.16,0.65,0.49,0.97
			c28.57,16.56,42.87,44.17,42.87,82.82C581.12,468.14,573.33,490.88,557.42,507.12z M433.38,222.61v117.41
			c0,1.3,0.65,1.95,1.95,1.95h53.89c17.54,0,31.18-5.19,40.92-15.59c9.74-10.39,14.61-25.01,14.61-43.84
			c0-19.49-4.87-34.66-14.61-45.55c-9.74-10.88-23.38-16.32-40.92-16.32h-53.89C434.02,220.66,433.38,221.32,433.38,222.61z
			 M531.6,483.49c9.74-11.52,14.61-27.69,14.61-48.47c0-21.11-4.87-37.51-14.61-49.2c-9.74-11.69-23.22-17.54-40.44-17.54h-55.84
			c-1.3,0-1.95,0.65-1.95,1.95v128.61c0,1.3,0.65,1.95,1.95,1.95h55.84C508.38,500.78,521.86,495.02,531.6,483.49z"/>
	</g>
	<path class="st1" d="M366.48,190.46h-25.33c-2.92,0-4.87,1.14-5.85,3.41L263,330.41c-0.33,0.65-0.82,0.97-1.46,0.97
		c-0.65,0-1.14-0.32-1.46-0.97l-72.29-136.54c-0.98-2.27-2.92-3.41-5.85-3.41h-2.92H160.7v15.63l27.98,59.31
		c0.03,0.03,0.05,0.05,0.08,0.07l67.42,142.74c0.97,2.28,2.76,3.41,5.36,3.41c2.27,0,3.9-1.13,4.87-3.41L334.32,265
		c0.65-0.65,1.22-0.98,1.7-0.98c0.49,0,0.73,0.49,0.73,1.46V526.6c0,3.25,1.62,4.87,4.87,4.87h24.85c3.24,0,4.87-1.62,4.87-4.87
		V195.33C371.35,192.09,369.72,190.46,366.48,190.46z"/>
</g>
<g id="Circuits">
	<g>
		<rect x="141.82" y="189.13" class="st2" width="10.79" height="130.57"/>
		<rect x="171.31" y="206" class="st2" width="10.79" height="113.7"/>
		
			<rect x="475.6" y="462.44" transform="matrix(-1.836970e-16 1 -1 -1.836970e-16 1034.2523 72.265)" class="st2" width="10.79" height="181.63"/>
		<circle class="st3" cx="207.15" cy="401.63" r="7.06"/>
		<circle class="st3" cx="207.15" cy="431.61" r="8.5"/>
		<circle class="st2" cx="207.15" cy="461.59" r="10.04"/>
		<path class="st3" d="M212.54,624.54V502.6c4.08-2,6.9-6.18,6.9-11.03c0-6.79-5.5-12.29-12.29-12.29s-12.29,5.5-12.29,12.29
			c0,4.85,2.82,9.03,6.9,11.03v121.94c-4.08,2-6.9,6.18-6.9,11.03c0,6.79,5.5,12.29,12.29,12.29s12.29-5.5,12.29-12.29
			C219.44,630.72,216.62,626.54,212.54,624.54z"/>
		<path class="st2" d="M626.11,588.77c-4.21,0-7.88,2.34-9.78,5.78H328.84v10.79h287.49c1.9,3.45,5.57,5.78,9.78,5.78
			c6.17,0,11.17-5,11.17-11.17C637.28,593.77,632.28,588.77,626.11,588.77z M626.11,605.11c-2.85,0-5.17-2.32-5.17-5.17
			s2.32-5.17,5.17-5.17s5.17,2.32,5.17,5.17S628.96,605.11,626.11,605.11z"/>
		<path class="st2" d="M587.12,635.45c-4.21,0-7.88,2.34-9.78,5.78H349.8c-1.9-3.45-5.57-5.78-9.78-5.78
			c-6.17,0-11.17,5-11.17,11.17c0,6.17,5,11.17,11.17,11.17c4.21,0,7.88-2.34,9.78-5.78h227.54c1.9,3.45,5.57,5.78,9.78,5.78
			c6.17,0,11.17-5,11.17-11.17C598.29,640.45,593.29,635.45,587.12,635.45z M340.01,651.8c-2.85,0-5.17-2.32-5.17-5.17
			s2.32-5.17,5.17-5.17c2.85,0,5.17,2.32,5.17,5.17S342.87,651.8,340.01,651.8z M587.12,651.8c-2.85,0-5.17-2.32-5.17-5.17
			s2.32-5.17,5.17-5.17c2.85,0,5.17,2.32,5.17,5.17S589.97,651.8,587.12,651.8z"/>
		<path class="st2" d="M346.62,554.41c4.29,0,7.78,3.49,7.78,7.78c0,4.29-3.49,7.78-7.78,7.78s-7.78-3.49-7.78-7.78
			C338.84,557.9,342.33,554.41,346.62,554.41 M346.62,544.41c-9.82,0-17.78,7.96-17.78,17.78s7.96,17.78,17.78,17.78
			c9.82,0,17.78-7.96,17.78-17.78S356.44,544.41,346.62,544.41L346.62,544.41z"/>
		<path class="st2" d="M571.04,173.13c5.39,0,9.78,4.39,9.78,9.78c0,5.39-4.39,9.78-9.78,9.78s-9.78-4.39-9.78-9.78
			C561.26,177.52,565.64,173.13,571.04,173.13 M571.04,165.13c-9.82,0-17.78,7.96-17.78,17.78c0,9.82,7.96,17.78,17.78,17.78
			s17.78-7.96,17.78-17.78C588.82,173.09,580.86,165.13,571.04,165.13L571.04,165.13z"/>
		<path class="st2" d="M610.86,131.77c7.72,0,14.01,6.28,14.01,14.01s-6.28,14.01-14.01,14.01c-7.72,0-14.01-6.28-14.01-14.01
			S603.14,131.77,610.86,131.77 M610.86,121.77c-13.26,0-24.01,10.75-24.01,24.01s10.75,24.01,24.01,24.01
			c13.26,0,24.01-10.75,24.01-24.01S624.12,121.77,610.86,121.77L610.86,121.77z"/>
		<g>
			<path class="st2" d="M162.12,130.15c7.72,0,14.01,6.28,14.01,14.01c0,7.72-6.28,14.01-14.01,14.01s-14.01-6.28-14.01-14.01
				C148.11,136.44,154.39,130.15,162.12,130.15 M162.12,120.15c-13.26,0-24.01,10.75-24.01,24.01s10.75,24.01,24.01,24.01
				s24.01-10.75,24.01-24.01S175.37,120.15,162.12,120.15L162.12,120.15z"/>
		</g>
		<g>
			<polygon class="st2" points="313.01,185.68 313.01,99.1 302.22,99.1 302.22,206.05 			"/>
			<polygon class="st2" points="289.67,229.77 289.67,99.1 278.88,99.1 278.88,250.14 			"/>
			<polygon class="st2" points="307.79,336.2 313.01,336.2 313.01,325.2 			"/>
			<polygon class="st2" points="242.99,274.28 242.99,99.1 232.2,99.1 232.2,253.91 			"/>
			<polygon class="st2" points="266.33,273.85 266.33,99.1 255.54,99.1 255.54,294.22 			"/>
		</g>
		<g>
			<path class="st2" d="M235.53,409.44l-3.33-7.05v249.63h10.79v-233.7C239.79,416.22,237.21,413.21,235.53,409.44z"/>
			<path class="st2" d="M255.54,421.6v230.42h10.79V417.89C263.26,420.12,259.58,421.41,255.54,421.6z"/>
			<polygon class="st2" points="278.88,397.17 278.88,652.02 289.67,652.02 289.67,374.42 			"/>
			<polygon class="st2" points="302.22,347.94 302.22,652.02 313.01,652.02 313.01,325.2 			"/>
		</g>
		<path class="st2" d="M610.86,505.27V196.48c2.45-1.71,4.06-4.54,4.06-7.76c0-5.22-4.23-9.45-9.45-9.45
			c-5.22,0-9.45,4.23-9.45,9.45c0,3.21,1.61,6.05,4.06,7.76v308.79c-2.45,1.71-4.06,4.54-4.06,7.76c0,5.22,4.23,9.45,9.45,9.45
			c5.22,0,9.45-4.23,9.45-9.45C614.92,509.81,613.32,506.97,610.86,505.27z M605.47,185.27c1.9,0,3.45,1.55,3.45,3.45
			s-1.55,3.45-3.45,3.45c-1.9,0-3.45-1.55-3.45-3.45S603.57,185.27,605.47,185.27z M605.47,516.47c-1.9,0-3.45-1.55-3.45-3.45
			c0-1.9,1.55-3.45,3.45-3.45c1.9,0,3.45,1.55,3.45,3.45C608.92,514.93,607.37,516.47,605.47,516.47z"/>
		<path class="st2" d="M633.61,508.1V193.64c2.45-1.71,4.06-4.54,4.06-7.76c0-5.22-4.23-9.45-9.45-9.45c-5.22,0-9.45,4.23-9.45,9.45
			c0,3.21,1.61,6.05,4.06,7.76V508.1c-2.45,1.71-4.06,4.54-4.06,7.76c0,5.22,4.23,9.45,9.45,9.45c5.22,0,9.45-4.23,9.45-9.45
			C637.67,512.65,636.06,509.81,633.61,508.1z M628.22,182.43c1.9,0,3.45,1.55,3.45,3.45s-1.55,3.45-3.45,3.45s-3.45-1.55-3.45-3.45
			S626.31,182.43,628.22,182.43z M628.22,519.31c-1.9,0-3.45-1.55-3.45-3.45c0-1.9,1.55-3.45,3.45-3.45s3.45,1.55,3.45,3.45
			C631.67,517.76,630.12,519.31,628.22,519.31z"/>
		<g>
			<path class="st2" d="M610.86,541.96c7.72,0,14.01,6.28,14.01,14.01c0,7.72-6.28,14.01-14.01,14.01
				c-7.72,0-14.01-6.28-14.01-14.01C596.86,548.24,603.14,541.96,610.86,541.96 M610.86,531.96c-13.26,0-24.01,10.75-24.01,24.01
				c0,13.26,10.75,24.01,24.01,24.01c13.26,0,24.01-10.75,24.01-24.01C634.87,542.7,624.12,531.96,610.86,531.96L610.86,531.96z"/>
		</g>
		<g>
			<path class="st2" d="M207.15,171.91c4.29,0,7.78,3.49,7.78,7.78s-3.49,7.78-7.78,7.78s-7.78-3.49-7.78-7.78
				S202.86,171.91,207.15,171.91 M207.15,161.91c-9.82,0-17.78,7.96-17.78,17.78s7.96,17.78,17.78,17.78s17.78-7.96,17.78-17.78
				S216.97,161.91,207.15,161.91L207.15,161.91z"/>
		</g>
		<path class="st3" d="M212.54,140.57v-24.14c2.48-1.71,4.11-4.58,4.11-7.82c0-5.25-4.25-9.5-9.5-9.5s-9.5,4.25-9.5,9.5
			c0,3.24,1.63,6.11,4.11,7.82v24.14c-2.48,1.71-4.11,4.58-4.11,7.82c0,5.25,4.25,9.5,9.5,9.5s9.5-4.25,9.5-9.5
			C216.65,145.14,215.03,142.28,212.54,140.57z"/>
		<path class="st2" d="M506.79,158.72c-3,0-5.67,1.4-7.4,3.58h-152.7c-1.73-2.18-4.4-3.58-7.4-3.58c-5.22,0-9.45,4.23-9.45,9.45
			s4.23,9.45,9.45,9.45c3,0,5.67-1.4,7.4-3.58h152.7c1.73,2.18,4.4,3.58,7.4,3.58c5.22,0,9.45-4.23,9.45-9.45
			S512.01,158.72,506.79,158.72z M339.29,171.62c-1.9,0-3.45-1.55-3.45-3.45s1.55-3.45,3.45-3.45s3.45,1.55,3.45,3.45
			S341.19,171.62,339.29,171.62z M506.79,171.62c-1.9,0-3.45-1.55-3.45-3.45s1.55-3.45,3.45-3.45s3.45,1.55,3.45,3.45
			S508.7,171.62,506.79,171.62z"/>
		<path class="st3" d="M526.65,169.79c7.84,2.95,15.07,6.76,21.68,11.44c0.31-4.24,1.81-8.15,4.14-11.44H526.65z"/>
		<path class="st3" d="M569.22,350.8c8.48,7.02,15.41,15.24,20.8,24.63v-18.44c-1.66-2.04-3.38-4.03-5.2-5.94
			c1.82-1.84,3.55-3.76,5.2-5.75v-18.38C584.79,336.3,577.86,344.27,569.22,350.8z"/>
		<path class="st3" d="M578.5,204.43c4.48,4.99,8.32,10.51,11.52,16.52v-19.17c-0.83-1.05-1.7-2.08-2.58-3.09
			C584.98,201.25,581.92,203.24,578.5,204.43z"/>
		<g>
			<polygon class="st3" points="213.39,362.56 112.33,362.56 112.33,373.35 218.48,373.35 			"/>
			<polygon class="st3" points="201.47,337.34 112.33,337.34 112.33,348.12 206.57,348.12 			"/>
		</g>
		<polygon class="st3" points="212.54,221.06 212.54,201.21 202.03,201.21 		"/>
		<g>
			<path class="st2" d="M364.65,581.99h221.38c-3.21-3.07-5.86-6.72-7.77-10.79H371.12C369.77,575.28,367.54,578.95,364.65,581.99z"
				/>
			<path class="st2" d="M368.74,547.87c1.87,3.25,3.13,6.9,3.61,10.79h202.62c-0.07-0.89-0.11-1.78-0.11-2.69
				c0-2.78,0.33-5.49,0.93-8.1H368.74z"/>
		</g>
		<g>
			<path class="st2" d="M596.02,131.11v-4.19c-1.55,1.22-2.95,2.63-4.15,4.19H596.02z"/>
			<path class="st2" d="M591.46,141.55h-4.23c-0.24,1.37-0.38,2.79-0.38,4.23c0,2.27,0.32,4.47,0.91,6.56h3.69V141.55z"/>
			<path class="st2" d="M588.35,120.32H329.84v10.79h250.35C582.17,126.99,584.96,123.33,588.35,120.32z"/>
			<path class="st2" d="M576.86,145.78c0-1.43,0.1-2.84,0.27-4.23H329.84v10.79H577.5C577.08,150.21,576.86,148.02,576.86,145.78z"
				/>
		</g>
		<g>
			<path class="st3" d="M511.39,393.65c-1.5-1.8-3.13-3.36-4.9-4.7h-59.61v8.51h67.24C513.27,396.11,512.37,394.83,511.39,393.65z"
				/>
			<path class="st3" d="M511.36,467.68l0.11-0.14c0.26-0.31,0.51-0.63,0.76-0.95h-65.36v8.51h54.79
				C505.4,473.37,508.59,470.92,511.36,467.68z"/>
			<path class="st3" d="M460.27,435.61c1.98,0,3.58-1.6,3.58-3.58c0-1.98-1.6-3.58-3.58-3.58c-1.98,0-3.58,1.6-3.58,3.58
				C456.69,434.01,458.3,435.61,460.27,435.61z"/>
			<path class="st3" d="M471.83,416.2c1.98,0,3.58-1.6,3.58-3.58c0-1.98-1.6-3.58-3.58-3.58c-1.98,0-3.58,1.6-3.58,3.58
				C468.25,414.6,469.85,416.2,471.83,416.2z"/>
			<path class="st3" d="M494.43,409.04c-1.98,0-3.58,1.6-3.58,3.58c0,1.98,1.6,3.58,3.58,3.58c1.98,0,3.58-1.6,3.58-3.58
				C498.01,410.64,496.41,409.04,494.43,409.04z"/>
			<circle class="st3" cx="483.13" cy="412.62" r="3.58"/>
			<path class="st3" d="M471.83,455.02c1.98,0,3.58-1.6,3.58-3.58c0-1.98-1.6-3.58-3.58-3.58c-1.98,0-3.58,1.6-3.58,3.58
				C468.25,453.42,469.85,455.02,471.83,455.02z"/>
			<path class="st3" d="M494.43,447.86c-1.98,0-3.58,1.6-3.58,3.58c0,1.98,1.6,3.58,3.58,3.58c1.98,0,3.58-1.6,3.58-3.58
				C498.01,449.46,496.41,447.86,494.43,447.86z"/>
			<circle class="st3" cx="483.13" cy="451.44" r="3.58"/>
			<path class="st3" d="M471.83,435.61c1.98,0,3.58-1.6,3.58-3.58c0-1.98-1.6-3.58-3.58-3.58c-1.98,0-3.58,1.6-3.58,3.58
				C468.25,434.01,469.85,435.61,471.83,435.61z"/>
			<path class="st3" d="M494.43,428.45c-1.98,0-3.58,1.6-3.58,3.58c0,1.98,1.6,3.58,3.58,3.58c1.98,0,3.58-1.6,3.58-3.58
				C498.01,430.05,496.41,428.45,494.43,428.45z"/>
			<circle class="st3" cx="483.13" cy="432.03" r="3.58"/>
			<circle class="st3" cx="483.13" cy="412.62" r="3.58"/>
			<circle class="st3" cx="483.13" cy="451.44" r="3.58"/>
			<path class="st3" d="M471.83,435.61c1.98,0,3.58-1.6,3.58-3.58c0-1.98-1.6-3.58-3.58-3.58c-1.98,0-3.58,1.6-3.58,3.58
				C468.25,434.01,469.85,435.61,471.83,435.61z"/>
			<circle class="st3" cx="483.13" cy="432.03" r="3.58"/>
			<g>
				<path class="st3" d="M503.51,412.62c0,1.54-0.39,2.99-1.07,4.26h18.28c-0.46-3.03-1.08-5.87-1.86-8.51h-16.42
					C503.13,409.63,503.51,411.08,503.51,412.62z"/>
				<path class="st3" d="M451.19,432.03c0-1.54,0.39-2.99,1.07-4.26h-5.39v8.51h5.39C451.58,435.01,451.19,433.57,451.19,432.03z"/>
				<path class="st3" d="M462.75,412.62c0-1.54,0.39-2.99,1.07-4.26h-16.94v8.51h16.94C463.13,415.6,462.75,414.16,462.75,412.62z"
					/>
				<path class="st3" d="M462.75,451.44c0-1.54,0.39-2.99,1.07-4.26h-16.94v8.51h16.94C463.13,454.43,462.75,452.98,462.75,451.44z"
					/>
				<path class="st3" d="M503.51,451.44c0,1.54-0.39,2.99-1.07,4.26h15.62c0.93-2.62,1.69-5.46,2.27-8.51h-17.89
					C503.13,448.45,503.51,449.9,503.51,451.44z"/>
				<path class="st3" d="M521.67,427.77h-19.22c0.68,1.27,1.07,2.72,1.07,4.26s-0.39,2.99-1.07,4.26h19.13
					c0.09-1.71,0.14-3.46,0.14-5.27C521.71,429.92,521.7,428.84,521.67,427.77z"/>
			</g>
		</g>
		<path class="st3" d="M511.39,243.83c-1.5-1.8-3.13-3.36-4.9-4.7h-59.61v8.51h67.24C513.27,246.29,512.37,245.01,511.39,243.83z"/>
		<path class="st3" d="M511.36,311.37l0.11-0.14c0.26-0.31,0.51-0.63,0.76-0.95h-65.36v8.51h54.79
			C505.4,317.06,508.59,314.6,511.36,311.37z"/>
		<g>
			<path class="st3" d="M471.83,264.75c1.98,0,3.58-1.6,3.58-3.58c0-1.98-1.6-3.58-3.58-3.58c-1.98,0-3.58,1.6-3.58,3.58
				C468.25,263.15,469.85,264.75,471.83,264.75z"/>
			<path class="st3" d="M494.43,257.59c-1.98,0-3.58,1.6-3.58,3.58c0,1.98,1.6,3.58,3.58,3.58c1.98,0,3.58-1.6,3.58-3.58
				C498.01,259.2,496.41,257.59,494.43,257.59z"/>
			<circle class="st3" cx="483.13" cy="261.17" r="3.58"/>
			<circle class="st3" cx="483.13" cy="261.17" r="3.58"/>
			<path class="st3" d="M503.51,261.17c0,1.54-0.39,2.99-1.07,4.26h18.28c-0.46-3.03-1.08-5.87-1.86-8.51h-16.42
				C503.13,258.19,503.51,259.64,503.51,261.17z"/>
			<path class="st3" d="M462.75,261.17c0-1.54,0.39-2.99,1.07-4.26h-16.94v8.51h16.94C463.13,264.16,462.75,262.71,462.75,261.17z"
				/>
		</g>
		<g>
			<path class="st3" d="M471.83,300.33c1.98,0,3.58-1.6,3.58-3.58s-1.6-3.58-3.58-3.58c-1.98,0-3.58,1.6-3.58,3.58
				S469.85,300.33,471.83,300.33z"/>
			<path class="st3" d="M494.43,293.17c-1.98,0-3.58,1.6-3.58,3.58s1.6,3.58,3.58,3.58c1.98,0,3.58-1.6,3.58-3.58
				S496.41,293.17,494.43,293.17z"/>
			<circle class="st3" cx="483.13" cy="296.75" r="3.58"/>
			<circle class="st3" cx="483.13" cy="296.75" r="3.58"/>
			<path class="st3" d="M462.75,296.75c0-1.54,0.39-2.99,1.07-4.26h-16.94v8.51h16.94C463.13,299.73,462.75,298.29,462.75,296.75z"
				/>
			<path class="st3" d="M503.51,296.75c0,1.54-0.39,2.99-1.07,4.26h15.62c0.93-2.62,1.69-5.46,2.27-8.51h-17.89
				C503.13,293.76,503.51,295.21,503.51,296.75z"/>
		</g>
		<g>
			<path class="st3" d="M460.27,282.54c1.98,0,3.58-1.6,3.58-3.58c0-1.98-1.6-3.58-3.58-3.58c-1.98,0-3.58,1.6-3.58,3.58
				C456.69,280.94,458.3,282.54,460.27,282.54z"/>
			<path class="st3" d="M471.83,282.54c1.98,0,3.58-1.6,3.58-3.58c0-1.98-1.6-3.58-3.58-3.58c-1.98,0-3.58,1.6-3.58,3.58
				C468.25,280.94,469.85,282.54,471.83,282.54z"/>
			<path class="st3" d="M494.43,275.38c-1.98,0-3.58,1.6-3.58,3.58c0,1.98,1.6,3.58,3.58,3.58c1.98,0,3.58-1.6,3.58-3.58
				C498.01,276.98,496.41,275.38,494.43,275.38z"/>
			<circle class="st3" cx="483.13" cy="278.96" r="3.58"/>
			<path class="st3" d="M471.83,282.54c1.98,0,3.58-1.6,3.58-3.58c0-1.98-1.6-3.58-3.58-3.58c-1.98,0-3.58,1.6-3.58,3.58
				C468.25,280.94,469.85,282.54,471.83,282.54z"/>
			<circle class="st3" cx="483.13" cy="278.96" r="3.58"/>
			<path class="st3" d="M451.19,278.96c0-1.54,0.39-2.99,1.07-4.26h-5.39v8.51h5.39C451.58,281.95,451.19,280.5,451.19,278.96z"/>
			<path class="st3" d="M521.67,274.7h-19.22c0.68,1.27,1.07,2.72,1.07,4.26s-0.39,2.99-1.07,4.26h19.13
				c0.09-1.71,0.14-3.46,0.14-5.27C521.71,276.85,521.7,275.77,521.67,274.7z"/>
		</g>
		<path class="st2" d="M112.33,170.3v1.93v47.41V319.7h10.79v-88.13v-70.14v-3.08C117.08,158.97,112.33,164.11,112.33,170.3z"/>
		<g>
			<path class="st2" d="M171.31,391.48v174.86v49.34v0.89l0.04,0.04c0.45,5.76,5.01,10.42,10.74,11v-0.26v-72.96V391.48H171.31z"/>
			<path class="st2" d="M112.33,507.1v49.34v1.15l0.06,0.06c0.57,5.63,5.09,10.15,10.72,10.72v-73.22V391.48h-10.79V507.1z"/>
			<path class="st2" d="M141.82,536.59v49.34v1.15l0.06,0.06c0.57,5.63,5.09,10.15,10.72,10.72v-73.22V391.48h-10.79V536.59z"/>
		</g>
		<path class="st2" d="M623.5,617.89h-73.22H328.84v10.79h233.38h49.34h1.15l0.06-0.06C618.41,628.04,622.93,623.52,623.5,617.89z"
			/>
		<path class="st2" d="M617.31,110.19c-0.59-6.18-5.44-11.07-11.37-11.37l-0.03-0.03h-0.54h-49.34H353.01
			c-2.05-3.92-6.15-6.59-10.88-6.59c-6.79,0-12.29,5.5-12.29,12.29s5.5,12.29,12.29,12.29c4.73,0,8.83-2.67,10.88-6.59
			L617.31,110.19L617.31,110.19L617.31,110.19z M342.13,110.78c-3.47,0-6.29-2.82-6.29-6.29s2.82-6.29,6.29-6.29
			s6.29,2.82,6.29,6.29S345.59,110.78,342.13,110.78z"/>
		<path class="st3" d="M568.99,520.31c-6.47,6.6-13.59,12.19-21.33,16.77h19.22c3.46-2.8,6.78-5.82,9.97-9.07
			c4.92-5.03,9.31-10.44,13.17-16.22v-23.19C584.96,500.58,577.94,511.18,568.99,520.31z"/>
	</g>
</g>
<g id="MB">
	<g>
		<path class="st2" d="M550.42,502.12c-15.92,16.24-37.19,24.36-63.82,24.36h-89.94c-3.25,0-4.87-1.62-4.87-4.87V190.33
			c0-3.24,1.62-4.87,4.87-4.87h85.56c27.93,0,49.85,7.72,65.77,23.14c15.91,15.43,23.87,37.43,23.87,66.01
			c0,36.38-13.48,61.22-40.44,74.54c-0.65,0.33-0.97,0.65-0.97,0.98c0,0.33,0.16,0.65,0.49,0.97
			c28.57,16.56,42.87,44.17,42.87,82.82C574.12,463.14,566.33,485.88,550.42,502.12z M426.38,217.61v117.41
			c0,1.3,0.65,1.95,1.95,1.95h53.89c17.54,0,31.18-5.19,40.92-15.59c9.74-10.39,14.61-25.01,14.61-43.84
			c0-19.49-4.87-34.66-14.61-45.55c-9.74-10.88-23.38-16.32-40.92-16.32h-53.89C427.02,215.66,426.38,216.32,426.38,217.61z
			 M524.6,478.49c9.74-11.52,14.61-27.69,14.61-48.47c0-21.11-4.87-37.51-14.61-49.2c-9.74-11.69-23.22-17.54-40.44-17.54h-55.84
			c-1.3,0-1.95,0.65-1.95,1.95v128.61c0,1.3,0.65,1.95,1.95,1.95h55.84C501.38,495.78,514.86,490.02,524.6,478.49z"/>
	</g>
	<path class="st2" d="M359.48,185.46h-25.33c-2.92,0-4.87,1.14-5.85,3.41L256,325.41c-0.33,0.65-0.82,0.97-1.46,0.97
		c-0.65,0-1.14-0.32-1.46-0.97l-72.29-136.54c-0.98-2.27-2.92-3.41-5.85-3.41h-2.92h-22.42h-2.92c-3.25,0-4.87,1.63-4.87,4.87v5.01
		h9.16l30.7,65.07c0.03,0.03,0.05,0.05,0.08,0.07l67.42,142.74c0.97,2.28,2.76,3.41,5.36,3.41c2.27,0,3.9-1.13,4.87-3.41L327.32,260
		c0.65-0.65,1.22-0.98,1.7-0.98c0.49,0,0.73,0.49,0.73,1.46V521.6c0,3.25,1.62,4.87,4.87,4.87h24.85c3.24,0,4.87-1.62,4.87-4.87
		V190.33C364.35,187.09,362.72,185.46,359.48,185.46z"/>
</g>
</svg>
