<?xml version="1.0" encoding="utf-8"?>
<!-- Generator: Adobe Illustrator 27.0.1, SVG Export Plug-In . SVG Version: 6.00 Build 0)  -->
<svg version="1.1" id="Layer_1" xmlns="http://www.w3.org/2000/svg" xmlns:xlink="http://www.w3.org/1999/xlink" x="0px" y="0px"
	 viewBox="0 0 750 750" style="enable-background:new 0 0 750 750;" xml:space="preserve">
<style type="text/css">
	.st0{display:none;}
	.st1{display:inline;fill:#19212E;}
	.st2{fill:#CCCCCB;}
	.st3{fill:#19212E;}
	.st4{fill:#5F9ED2;}
	.st5{fill:#CCCBCB;}
</style>
<g id="BKGD" class="st0">
	<rect class="st1" width="750" height="750"/>
</g>
<g>
	<g id="Shadow">
		<g>
			<path class="st2" d="M557.4,484.1c-15.9,16.2-37.2,24.4-63.8,24.4h-89.9c-3.2,0-4.9-1.6-4.9-4.9V172.3c0-3.2,1.6-4.9,4.9-4.9
				h85.6c27.9,0,49.8,7.7,65.8,23.1c15.9,15.4,23.9,37.4,23.9,66c0,36.4-13.5,61.2-40.4,74.5c-0.7,0.3-1,0.6-1,1
				c0,0.3,0.2,0.6,0.5,1c28.6,16.6,42.9,44.2,42.9,82.8C581.1,445.1,573.3,467.8,557.4,484.1z M433.4,199.6V317c0,1.3,0.6,2,2,2
				h53.9c17.5,0,31.2-5.2,40.9-15.6c9.7-10.4,14.6-25,14.6-43.8c0-19.5-4.9-34.7-14.6-45.6c-9.7-10.9-23.4-16.3-40.9-16.3h-53.9
				C434,197.6,433.4,198.3,433.4,199.6z M531.6,460.4c9.7-11.5,14.6-27.7,14.6-48.5c0-21.1-4.9-37.5-14.6-49.2s-23.2-17.5-40.4-17.5
				h-55.8c-1.3,0-2,0.6-2,2v128.6c0,1.3,0.6,2,2,2h55.8C508.4,477.7,521.9,472,531.6,460.4z"/>
		</g>
		<path class="st2" d="M366.5,167.4h-25.3c-2.9,0-4.9,1.1-5.9,3.4L263,307.4c-0.3,0.6-0.8,1-1.5,1c-0.6,0-1.1-0.3-1.5-1l-72.3-136.5
			c-1-2.3-2.9-3.4-5.9-3.4H179h-18.3V183l28,59.3c0,0,0.1,0,0.1,0.1l67.4,142.7c1,2.3,2.8,3.4,5.4,3.4c2.3,0,3.9-1.1,4.9-3.4
			l67.9-143.2c0.6-0.6,1.2-1,1.7-1c0.5,0,0.7,0.5,0.7,1.5v261.1c0,3.2,1.6,4.9,4.9,4.9h24.9c3.2,0,4.9-1.6,4.9-4.9V172.3
			C371.4,169,369.7,167.4,366.5,167.4z"/>
	</g>
	<g id="Circuits">
		<rect x="141.8" y="166.1" class="st3" width="10.8" height="130.6"/>
		<rect x="171.3" y="183" class="st3" width="10.8" height="113.7"/>
		<rect x="390.2" y="524.8" class="st3" width="181.6" height="10.8"/>
		<circle class="st4" cx="207.1" cy="378.6" r="7.1"/>
		<circle class="st4" cx="207.1" cy="408.6" r="8.5"/>
		<circle class="st3" cx="207.1" cy="438.5" r="10"/>
		<path class="st4" d="M212.5,601.5v-122c4.1-2,6.9-6.2,6.9-11c0-6.8-5.5-12.3-12.3-12.3s-12.3,5.5-12.3,12.3c0,4.9,2.8,9,6.9,11
			v121.9c-4.1,2-6.9,6.2-6.9,11c0,6.8,5.5,12.3,12.3,12.3s12.3-5.5,12.3-12.3C219.4,607.7,216.6,603.5,212.5,601.5z"/>
		<path class="st3" d="M626.1,565.7c-4.2,0-7.9,2.3-9.8,5.8H328.8v10.8h287.5c1.9,3.5,5.6,5.8,9.8,5.8c6.2,0,11.2-5,11.2-11.2
			S632.3,565.7,626.1,565.7z M626.1,582.1c-2.8,0-5.2-2.3-5.2-5.2s2.3-5.2,5.2-5.2s5.2,2.3,5.2,5.2
			C631.3,579.8,629,582.1,626.1,582.1z"/>
		<path class="st3" d="M587.1,612.4c-4.2,0-7.9,2.3-9.8,5.8H349.8c-1.9-3.5-5.6-5.8-9.8-5.8c-6.2,0-11.2,5-11.2,11.2
			s5,11.2,11.2,11.2c4.2,0,7.9-2.3,9.8-5.8h227.5c1.9,3.5,5.6,5.8,9.8,5.8c6.2,0,11.2-5,11.2-11.2S593.3,612.4,587.1,612.4z
			 M340,628.8c-2.9,0-5.2-2.3-5.2-5.2s2.3-5.2,5.2-5.2s5.2,2.3,5.2,5.2C345.2,626.4,342.9,628.8,340,628.8z M587.1,628.8
			c-2.8,0-5.2-2.3-5.2-5.2s2.3-5.2,5.2-5.2s5.2,2.3,5.2,5.2S590,628.8,587.1,628.8z"/>
		<path class="st3" d="M346.6,531.4c4.3,0,7.8,3.5,7.8,7.8s-3.5,7.8-7.8,7.8s-7.8-3.5-7.8-7.8S342.3,531.4,346.6,531.4 M346.6,521.4
			c-9.8,0-17.8,8-17.8,17.8s8,17.8,17.8,17.8s17.8-8,17.8-17.8S356.4,521.4,346.6,521.4L346.6,521.4z"/>
		<path class="st3" d="M571,150.1c5.4,0,9.8,4.4,9.8,9.8c0,5.4-4.4,9.8-9.8,9.8s-9.8-4.4-9.8-9.8C561.3,154.5,565.6,150.1,571,150.1
			 M571,142.1c-9.8,0-17.8,8-17.8,17.8s8,17.8,17.8,17.8s17.8-8,17.8-17.8C588.8,150.1,580.9,142.1,571,142.1L571,142.1z"/>
		<path class="st3" d="M610.9,108.7c7.7,0,14,6.3,14,14s-6.3,14-14,14c-7.7,0-14-6.3-14-14S603.1,108.7,610.9,108.7 M610.9,98.7
			c-13.3,0-24,10.8-24,24c0,13.3,10.8,24,24,24s24-10.8,24-24S624.1,98.7,610.9,98.7L610.9,98.7z"/>
		<g>
			<path class="st3" d="M162.1,107.1c7.7,0,14,6.3,14,14c0,7.7-6.3,14-14,14s-14-6.3-14-14S154.4,107.1,162.1,107.1 M162.1,97.1
				c-13.3,0-24,10.8-24,24s10.8,24,24,24s24-10.8,24-24S175.4,97.1,162.1,97.1L162.1,97.1z"/>
		</g>
		<g>
			<polygon class="st3" points="313,162.6 313,76.1 302.2,76.1 302.2,183 			"/>
			<polygon class="st3" points="289.7,206.7 289.7,76.1 278.9,76.1 278.9,227.1 			"/>
			<polygon class="st3" points="307.8,313.2 313,313.2 313,302.2 			"/>
			<polygon class="st3" points="243,251.2 243,76.1 232.2,76.1 232.2,230.9 			"/>
			<polygon class="st3" points="266.3,250.8 266.3,76.1 255.5,76.1 255.5,271.2 			"/>
		</g>
		<g>
			<path class="st3" d="M235.5,386.4l-3.3-7V629H243V395.3C239.8,393.2,237.2,390.2,235.5,386.4z"/>
			<path class="st3" d="M255.5,398.6V629h10.8V394.9C263.3,397.1,259.6,398.4,255.5,398.6z"/>
			<polygon class="st3" points="278.9,374.1 278.9,629 289.7,629 289.7,351.4 			"/>
			<polygon class="st3" points="302.2,324.9 302.2,629 313,629 313,302.2 			"/>
		</g>
		<path class="st3" d="M610.9,482.2V173.4c2.5-1.7,4.1-4.5,4.1-7.8c0-5.2-4.2-9.4-9.5-9.4c-5.2,0-9.5,4.2-9.5,9.4
			c0,3.2,1.6,6.1,4.1,7.8v308.8c-2.5,1.7-4.1,4.5-4.1,7.8c0,5.2,4.2,9.4,9.5,9.4c5.2,0,9.5-4.2,9.5-9.5
			C614.9,486.8,613.3,483.9,610.9,482.2z M605.5,162.2c1.9,0,3.5,1.6,3.5,3.5s-1.5,3.4-3.5,3.4s-3.5-1.5-3.5-3.4
			S603.6,162.2,605.5,162.2z M605.5,493.4c-1.9,0-3.5-1.5-3.5-3.5s1.5-3.5,3.5-3.5s3.5,1.5,3.5,3.5S607.4,493.4,605.5,493.4z"/>
		<path class="st3" d="M633.6,485.1V170.6c2.5-1.7,4.1-4.5,4.1-7.8c0-5.2-4.2-9.5-9.5-9.5c-5.2,0-9.5,4.2-9.5,9.5
			c0,3.2,1.6,6,4.1,7.8v314.5c-2.5,1.7-4.1,4.5-4.1,7.8c0,5.2,4.2,9.5,9.5,9.5c5.2,0,9.5-4.2,9.5-9.5
			C637.7,489.6,636.1,486.8,633.6,485.1z M628.2,159.4c1.9,0,3.5,1.6,3.5,3.5s-1.5,3.4-3.5,3.4s-3.5-1.5-3.5-3.4
			S626.3,159.4,628.2,159.4z M628.2,496.3c-1.9,0-3.5-1.5-3.5-3.5s1.5-3.5,3.5-3.5s3.5,1.5,3.5,3.5S630.1,496.3,628.2,496.3z"/>
		<g>
			<path class="st3" d="M610.9,518.9c7.7,0,14,6.3,14,14c0,7.7-6.3,14-14,14c-7.7,0-14-6.3-14-14
				C596.9,525.2,603.1,518.9,610.9,518.9 M610.9,508.9c-13.3,0-24,10.8-24,24s10.8,24,24,24s24-10.8,24-24S624.1,508.9,610.9,508.9
				L610.9,508.9z"/>
		</g>
		<g>
			<path class="st3" d="M207.1,148.9c4.3,0,7.8,3.5,7.8,7.8c0,4.3-3.5,7.8-7.8,7.8s-7.8-3.5-7.8-7.8
				C199.4,152.4,202.9,148.9,207.1,148.9 M207.1,138.9c-9.8,0-17.8,8-17.8,17.8c0,9.8,8,17.8,17.8,17.8s17.8-8,17.8-17.8
				C224.9,146.8,217,138.9,207.1,138.9L207.1,138.9z"/>
		</g>
		<path class="st4" d="M212.5,117.5V93.4c2.5-1.7,4.1-4.6,4.1-7.8c0-5.2-4.2-9.5-9.5-9.5s-9.5,4.2-9.5,9.5c0,3.2,1.6,6.1,4.1,7.8
			v24.1c-2.5,1.7-4.1,4.6-4.1,7.8c0,5.3,4.2,9.5,9.5,9.5s9.5-4.2,9.5-9.5C216.6,122.1,215,119.2,212.5,117.5z"/>
		<path class="st3" d="M506.8,135.7c-3,0-5.7,1.4-7.4,3.6H346.7c-1.7-2.2-4.4-3.6-7.4-3.6c-5.2,0-9.5,4.2-9.5,9.4s4.2,9.5,9.5,9.5
			c3,0,5.7-1.4,7.4-3.6h152.7c1.7,2.2,4.4,3.6,7.4,3.6c5.2,0,9.4-4.2,9.4-9.5S512,135.7,506.8,135.7z M339.3,148.6
			c-1.9,0-3.5-1.5-3.5-3.4s1.5-3.5,3.5-3.5s3.5,1.6,3.5,3.5S341.2,148.6,339.3,148.6z M506.8,148.6c-1.9,0-3.5-1.5-3.5-3.4
			s1.5-3.5,3.5-3.5s3.5,1.6,3.5,3.5S508.7,148.6,506.8,148.6z"/>
		<path class="st4" d="M526.7,146.7c7.8,2.9,15.1,6.8,21.7,11.4c0.3-4.2,1.8-8.1,4.1-11.4H526.7z"/>
		<path class="st4" d="M569.2,327.8c8.5,7,15.4,15.2,20.8,24.6v-18.4c-1.7-2-3.4-4-5.2-5.9c1.8-1.8,3.5-3.8,5.2-5.8v-18.4
			C584.8,313.3,577.9,321.2,569.2,327.8z"/>
		<path class="st4" d="M578.5,181.4c4.5,5,8.3,10.5,11.5,16.5v-19.2c-0.8-1-1.7-2.1-2.6-3.1C585,178.2,581.9,180.2,578.5,181.4z"/>
		<g>
			<polygon class="st4" points="213.4,339.5 112.3,339.5 112.3,350.3 218.5,350.3 			"/>
			<polygon class="st4" points="201.5,314.3 112.3,314.3 112.3,325.1 206.6,325.1 			"/>
		</g>
		<polygon class="st4" points="212.5,198 212.5,178.2 202,178.2 		"/>
		<g>
			<path class="st3" d="M364.6,559H586c-3.2-3.1-5.9-6.7-7.8-10.8H371.1C369.8,552.2,367.5,555.9,364.6,559z"/>
			<path class="st3" d="M368.7,524.8c1.9,3.2,3.1,6.9,3.6,10.8H575c-0.1-0.9-0.1-1.8-0.1-2.7c0-2.8,0.3-5.5,0.9-8.1H368.7z"/>
		</g>
		<g>
			<path class="st3" d="M596,108.1v-4.2c-1.5,1.2-3,2.6-4.2,4.2H596z"/>
			<path class="st3" d="M591.5,118.5h-4.2c-0.2,1.4-0.4,2.8-0.4,4.2c0,2.3,0.3,4.5,0.9,6.6h3.7L591.5,118.5L591.5,118.5z"/>
			<path class="st3" d="M588.3,97.3H329.8v10.8h250.4C582.2,103.9,585,100.3,588.3,97.3z"/>
			<path class="st3" d="M576.9,122.7c0-1.4,0.1-2.8,0.3-4.2H329.8v10.8h247.7C577.1,127.2,576.9,125,576.9,122.7z"/>
		</g>
		<g>
			<path class="st4" d="M511.4,370.6c-1.5-1.8-3.1-3.4-4.9-4.7h-59.6v8.5h67.2C513.3,373.1,512.4,371.8,511.4,370.6z"/>
			<path class="st4" d="M511.4,444.6l0.1-0.1c0.3-0.3,0.5-0.6,0.8-1h-65.4v8.5h54.8C505.4,450.3,508.6,447.9,511.4,444.6z"/>
			<path class="st4" d="M460.3,412.6c2,0,3.6-1.6,3.6-3.6c0-2-1.6-3.6-3.6-3.6c-2,0-3.6,1.6-3.6,3.6S458.3,412.6,460.3,412.6z"/>
			<path class="st4" d="M471.8,393.2c2,0,3.6-1.6,3.6-3.6c0-2-1.6-3.6-3.6-3.6c-2,0-3.6,1.6-3.6,3.6S469.9,393.2,471.8,393.2z"/>
			<path class="st4" d="M494.4,386c-2,0-3.6,1.6-3.6,3.6c0,2,1.6,3.6,3.6,3.6c2,0,3.6-1.6,3.6-3.6C498,387.6,496.4,386,494.4,386z"
				/>
			<circle class="st4" cx="483.1" cy="389.6" r="3.6"/>
			<path class="st4" d="M471.8,432c2,0,3.6-1.6,3.6-3.6c0-2-1.6-3.6-3.6-3.6c-2,0-3.6,1.6-3.6,3.6C468.2,430.4,469.9,432,471.8,432z
				"/>
			<path class="st4" d="M494.4,424.8c-2,0-3.6,1.6-3.6,3.6c0,2,1.6,3.6,3.6,3.6c2,0,3.6-1.6,3.6-3.6
				C498,426.4,496.4,424.8,494.4,424.8z"/>
			<circle class="st4" cx="483.1" cy="428.4" r="3.6"/>
			<path class="st4" d="M471.8,412.6c2,0,3.6-1.6,3.6-3.6c0-2-1.6-3.6-3.6-3.6c-2,0-3.6,1.6-3.6,3.6S469.9,412.6,471.8,412.6z"/>
			<path class="st4" d="M494.4,405.4c-2,0-3.6,1.6-3.6,3.6c0,2,1.6,3.6,3.6,3.6c2,0,3.6-1.6,3.6-3.6
				C498,407,496.4,405.4,494.4,405.4z"/>
			<circle class="st4" cx="483.1" cy="409" r="3.6"/>
			<circle class="st4" cx="483.1" cy="389.6" r="3.6"/>
			<circle class="st4" cx="483.1" cy="428.4" r="3.6"/>
			<path class="st4" d="M471.8,412.6c2,0,3.6-1.6,3.6-3.6c0-2-1.6-3.6-3.6-3.6c-2,0-3.6,1.6-3.6,3.6S469.9,412.6,471.8,412.6z"/>
			<circle class="st4" cx="483.1" cy="409" r="3.6"/>
			<g>
				<path class="st4" d="M503.5,389.6c0,1.5-0.4,3-1.1,4.3h18.3c-0.5-3-1.1-5.9-1.9-8.5h-16.4C503.1,386.6,503.5,388,503.5,389.6z"
					/>
				<path class="st4" d="M451.2,409c0-1.5,0.4-3,1.1-4.3h-5.4v8.5h5.4C451.6,412,451.2,410.5,451.2,409z"/>
				<path class="st4" d="M462.8,389.6c0-1.5,0.4-3,1.1-4.3h-16.9v8.5h16.9C463.1,392.6,462.8,391.1,462.8,389.6z"/>
				<path class="st4" d="M462.8,428.4c0-1.5,0.4-3,1.1-4.3h-16.9v8.5h16.9C463.1,431.4,462.8,429.9,462.8,428.4z"/>
				<path class="st4" d="M503.5,428.4c0,1.5-0.4,3-1.1,4.3h15.6c0.9-2.6,1.7-5.5,2.3-8.5h-17.9C503.1,425.4,503.5,426.9,503.5,428.4
					z"/>
				<path class="st4" d="M521.7,404.7h-19.2c0.7,1.3,1.1,2.7,1.1,4.3s-0.4,3-1.1,4.3h19.1c0.1-1.7,0.1-3.5,0.1-5.3
					C521.7,406.9,521.7,405.8,521.7,404.7z"/>
			</g>
		</g>
		<path class="st4" d="M511.4,220.8c-1.5-1.8-3.1-3.4-4.9-4.7h-59.6v8.5h67.2C513.3,223.2,512.4,222,511.4,220.8z"/>
		<path class="st4" d="M511.4,288.3l0.1-0.1c0.3-0.3,0.5-0.6,0.8-1h-65.4v8.5h54.8C505.4,294,508.6,291.6,511.4,288.3z"/>
		<g>
			<path class="st4" d="M471.8,241.7c2,0,3.6-1.6,3.6-3.6c0-2-1.6-3.6-3.6-3.6c-2,0-3.6,1.6-3.6,3.6
				C468.2,240.1,469.9,241.7,471.8,241.7z"/>
			<path class="st4" d="M494.4,234.6c-2,0-3.6,1.6-3.6,3.6c0,2,1.6,3.6,3.6,3.6c2,0,3.6-1.6,3.6-3.6
				C498,236.2,496.4,234.6,494.4,234.6z"/>
			<circle class="st4" cx="483.1" cy="238.1" r="3.6"/>
			<circle class="st4" cx="483.1" cy="238.1" r="3.6"/>
			<path class="st4" d="M503.5,238.1c0,1.5-0.4,3-1.1,4.3h18.3c-0.5-3-1.1-5.9-1.9-8.5h-16.4C503.1,235.1,503.5,236.6,503.5,238.1z"
				/>
			<path class="st4" d="M462.8,238.1c0-1.5,0.4-3,1.1-4.3h-16.9v8.5h16.9C463.1,241.1,462.8,239.7,462.8,238.1z"/>
		</g>
		<g>
			<path class="st4" d="M471.8,277.3c2,0,3.6-1.6,3.6-3.6c0-2-1.6-3.6-3.6-3.6c-2,0-3.6,1.6-3.6,3.6S469.9,277.3,471.8,277.3z"/>
			<path class="st4" d="M494.4,270.1c-2,0-3.6,1.6-3.6,3.6c0,2,1.6,3.6,3.6,3.6c2,0,3.6-1.6,3.6-3.6
				C498,271.7,496.4,270.1,494.4,270.1z"/>
			<circle class="st4" cx="483.1" cy="273.7" r="3.6"/>
			<circle class="st4" cx="483.1" cy="273.7" r="3.6"/>
			<path class="st4" d="M462.8,273.7c0-1.5,0.4-3,1.1-4.3h-16.9v8.5h16.9C463.1,276.7,462.8,275.2,462.8,273.7z"/>
			<path class="st4" d="M503.5,273.7c0,1.5-0.4,3-1.1,4.3h15.6c0.9-2.6,1.7-5.5,2.3-8.5h-17.9C503.1,270.7,503.5,272.2,503.5,273.7z
				"/>
		</g>
		<g>
			<path class="st4" d="M460.3,259.5c2,0,3.6-1.6,3.6-3.6c0-2-1.6-3.6-3.6-3.6c-2,0-3.6,1.6-3.6,3.6
				C456.7,257.9,458.3,259.5,460.3,259.5z"/>
			<path class="st4" d="M471.8,259.5c2,0,3.6-1.6,3.6-3.6c0-2-1.6-3.6-3.6-3.6c-2,0-3.6,1.6-3.6,3.6
				C468.2,257.9,469.9,259.5,471.8,259.5z"/>
			<path class="st4" d="M494.4,252.3c-2,0-3.6,1.6-3.6,3.6c0,2,1.6,3.6,3.6,3.6c2,0,3.6-1.6,3.6-3.6
				C498,253.9,496.4,252.3,494.4,252.3z"/>
			<circle class="st4" cx="483.1" cy="255.9" r="3.6"/>
			<path class="st4" d="M471.8,259.5c2,0,3.6-1.6,3.6-3.6c0-2-1.6-3.6-3.6-3.6c-2,0-3.6,1.6-3.6,3.6
				C468.2,257.9,469.9,259.5,471.8,259.5z"/>
			<circle class="st4" cx="483.1" cy="255.9" r="3.6"/>
			<path class="st4" d="M451.2,255.9c0-1.5,0.4-3,1.1-4.3h-5.4v8.5h5.4C451.6,258.9,451.2,257.5,451.2,255.9z"/>
			<path class="st4" d="M521.7,251.7h-19.2c0.7,1.3,1.1,2.7,1.1,4.3s-0.4,3-1.1,4.3h19.1c0.1-1.7,0.1-3.5,0.1-5.3
				C521.7,253.8,521.7,252.7,521.7,251.7z"/>
		</g>
		<path class="st3" d="M112.3,147.3v1.9v47.4v100.1h10.8v-88.1v-70.1v-3.1C117.1,135.9,112.3,141.1,112.3,147.3z"/>
		<g>
			<path class="st3" d="M171.3,368.4v174.9v49.3v0.9l0,0c0.4,5.8,5,10.4,10.7,11v-0.3v-73V368.4H171.3z"/>
			<path class="st3" d="M112.3,484.1v49.3v1.2l0.1,0.1c0.6,5.6,5.1,10.2,10.7,10.7v-73.2V368.4h-10.8L112.3,484.1L112.3,484.1z"/>
			<path class="st3" d="M141.8,513.6v49.3v1.2l0.1,0.1c0.6,5.6,5.1,10.2,10.7,10.7v-73.2V368.4h-10.8L141.8,513.6L141.8,513.6z"/>
		</g>
		<path class="st3" d="M623.5,594.8h-73.2H328.8v10.8h233.4h49.3h1.2l0.1-0.1C618.4,605,622.9,600.5,623.5,594.8z"/>
		<path class="st3" d="M617.3,87.1c-0.6-6.2-5.4-11.1-11.4-11.4l0,0h-0.5H556H353c-2-3.9-6.1-6.6-10.9-6.6
			c-6.8,0-12.3,5.5-12.3,12.3s5.5,12.3,12.3,12.3c4.7,0,8.8-2.7,10.9-6.6H617.3L617.3,87.1L617.3,87.1z M342.1,87.7
			c-3.5,0-6.3-2.8-6.3-6.3s2.8-6.3,6.3-6.3s6.3,2.8,6.3,6.3S345.6,87.7,342.1,87.7z"/>
		<path class="st4" d="M569,497.3c-6.5,6.6-13.6,12.2-21.3,16.8h19.2c3.5-2.8,6.8-5.8,10-9.1c4.9-5,9.3-10.4,13.2-16.2v-23.2
			C585,477.5,577.9,488.1,569,497.3z"/>
	</g>
	<g id="MB">
		<g>
			<path class="st3" d="M550.4,479.1c-15.9,16.2-37.2,24.4-63.8,24.4h-89.9c-3.2,0-4.9-1.6-4.9-4.9V167.3c0-3.2,1.6-4.9,4.9-4.9
				h85.6c27.9,0,49.8,7.7,65.8,23.1c15.9,15.4,23.9,37.4,23.9,66c0,36.4-13.5,61.2-40.4,74.5c-0.7,0.3-1,0.6-1,1
				c0,0.3,0.2,0.6,0.5,1c28.6,16.6,42.9,44.2,42.9,82.8C574.1,440.1,566.3,462.8,550.4,479.1z M426.4,194.6V312c0,1.3,0.6,2,2,2
				h53.9c17.5,0,31.2-5.2,40.9-15.6c9.7-10.4,14.6-25,14.6-43.8c0-19.5-4.9-34.7-14.6-45.6c-9.7-10.9-23.4-16.3-40.9-16.3h-53.9
				C427,192.6,426.4,193.3,426.4,194.6z M524.6,455.4c9.7-11.5,14.6-27.7,14.6-48.5c0-21.1-4.9-37.5-14.6-49.2s-23.2-17.5-40.4-17.5
				h-55.8c-1.3,0-2,0.6-2,2v128.6c0,1.3,0.6,2,2,2h55.8C501.4,472.7,514.9,467,524.6,455.4z"/>
		</g>
		<path class="st3" d="M359.5,162.4h-25.3c-2.9,0-4.9,1.1-5.9,3.4L256,302.4c-0.3,0.6-0.8,1-1.5,1c-0.6,0-1.1-0.3-1.5-1l-72.3-136.5
			c-1-2.3-2.9-3.4-5.9-3.4H172h-22.4h-2.9c-3.2,0-4.9,1.6-4.9,4.9v5h9.2l30.7,65.1c0,0,0.1,0,0.1,0.1l67.4,142.7
			c1,2.3,2.8,3.4,5.4,3.4c2.3,0,3.9-1.1,4.9-3.4l67.9-143.2c0.6-0.6,1.2-1,1.7-1c0.5,0,0.7,0.5,0.7,1.5v261.1c0,3.2,1.6,4.9,4.9,4.9
			h24.9c3.2,0,4.9-1.6,4.9-4.9V167.3C364.4,164,362.7,162.4,359.5,162.4z"/>
	</g>
	<g>
		<path class="st5" d="M228.8,655.3h1.9c0.2,0,0.4,0.1,0.4,0.4v24.5c0,0.2-0.1,0.4-0.4,0.4h-1.8c-0.2,0-0.4-0.1-0.4-0.4v-19.3
			c0-0.1,0-0.1-0.1-0.1s-0.1,0-0.1,0.1l-3.7,7.8c-0.1,0.2-0.2,0.2-0.4,0.2c-0.2,0-0.3-0.1-0.4-0.2l-3.7-7.7c-0.1,0-0.1-0.1-0.1-0.1
			c0,0-0.1,0-0.1,0.1v19.3c0,0.2-0.1,0.4-0.4,0.4h-1.8c-0.2,0-0.4-0.1-0.4-0.4v-24.5c0-0.2,0.1-0.4,0.4-0.4h1.9
			c0.2,0,0.4,0.1,0.4,0.2l4.1,8.3c0,0,0.1,0.1,0.1,0.1s0.1,0,0.1-0.1l4.1-8.3C228.4,655.4,228.6,655.3,228.8,655.3z"/>
		<path class="st5" d="M243.3,680.2v-24.5c0-0.2,0.1-0.4,0.4-0.4h1.8c0.2,0,0.4,0.1,0.4,0.4v24.5c0,0.2-0.1,0.4-0.4,0.4h-1.8
			C243.4,680.5,243.3,680.4,243.3,680.2z"/>
		<path class="st5" d="M259.3,679.1c-1.1-1.1-1.7-2.6-1.7-4.5v-13.4c0-1.9,0.6-3.4,1.7-4.5c1.1-1.1,2.6-1.7,4.5-1.7
			c1.9,0,3.4,0.6,4.5,1.7c1.1,1.1,1.7,2.6,1.7,4.5v0.6c0,0.2-0.1,0.4-0.4,0.4l-1.9,0.1c-0.2,0-0.4-0.1-0.4-0.4v-0.9
			c0-1.1-0.3-2-1-2.7s-1.5-1-2.6-1c-1.1,0-1.9,0.3-2.6,1s-1,1.6-1,2.7v13.8c0,1.1,0.3,2,1,2.7s1.5,1,2.6,1c1.1,0,1.9-0.3,2.6-1
			c0.6-0.7,1-1.6,1-2.7v-0.9c0-0.2,0.1-0.4,0.4-0.4l1.9,0.1c0.2,0,0.4,0.1,0.4,0.4v0.6c0,1.9-0.6,3.4-1.7,4.5s-2.6,1.7-4.5,1.7
			C261.9,680.8,260.4,680.3,259.3,679.1z"/>
		<path class="st5" d="M291.1,655.3h1.8c0.2,0,0.4,0.1,0.4,0.4v24.5c0,0.2-0.1,0.4-0.4,0.4h-1.8c-0.2,0-0.4-0.1-0.4-0.4v-11
			c0-0.1,0-0.1-0.1-0.1h-6.4c-0.1,0-0.1,0-0.1,0.1v11c0,0.2-0.1,0.4-0.4,0.4h-1.8c-0.2,0-0.4-0.1-0.4-0.4v-24.5
			c0-0.2,0.1-0.4,0.4-0.4h1.8c0.2,0,0.4,0.1,0.4,0.4v10.9c0,0.1,0,0.1,0.1,0.1h6.4c0.1,0,0.1,0,0.1-0.1v-10.9
			C290.8,655.5,290.9,655.3,291.1,655.3z"/>
		<path class="st5" d="M314.8,680.2l-0.9-4.5c0,0,0-0.1,0-0.1c0,0-0.1,0-0.1,0h-6.5c0,0-0.1,0-0.1,0c0,0,0,0.1,0,0.1l-0.9,4.5
			c0,0.2-0.2,0.3-0.4,0.3h-1.8c-0.1,0-0.2,0-0.3-0.1s-0.1-0.2,0-0.3l5.4-24.5c0-0.2,0.2-0.3,0.4-0.3h2.2c0.2,0,0.4,0.1,0.4,0.3
			l5.5,24.5v0.1c0,0.2-0.1,0.3-0.3,0.3h-1.9C315,680.5,314.9,680.4,314.8,680.2z M307.6,673.5h5.7c0.1,0,0.1,0,0.1-0.1l-2.9-14.2
			c0-0.1,0-0.1-0.1-0.1c0,0,0,0-0.1,0.1l-2.9,14.2C307.5,673.5,307.5,673.5,307.6,673.5z"/>
		<path class="st5" d="M338.7,657.6h-8.4c-0.1,0-0.1,0-0.1,0.1v8.9c0,0.1,0,0.1,0.1,0.1h5.3c0.2,0,0.4,0.1,0.4,0.4v1.5
			c0,0.2-0.1,0.4-0.4,0.4h-5.3c-0.1,0-0.1,0-0.1,0.1v9c0,0.1,0,0.1,0.1,0.1h8.4c0.2,0,0.4,0.1,0.4,0.4v1.5c0,0.2-0.1,0.4-0.4,0.4
			H328c-0.2,0-0.4-0.1-0.4-0.4v-24.5c0-0.2,0.1-0.4,0.4-0.4h10.7c0.2,0,0.4,0.1,0.4,0.4v1.5C339.1,657.5,339,657.6,338.7,657.6z"/>
		<path class="st5" d="M350.3,680.2v-24.5c0-0.2,0.1-0.4,0.4-0.4h1.8c0.2,0,0.4,0.1,0.4,0.4v22.5c0,0.1,0,0.1,0.1,0.1h8.2
			c0.2,0,0.4,0.1,0.4,0.4v1.5c0,0.2-0.1,0.4-0.4,0.4h-10.6C350.4,680.5,350.3,680.4,350.3,680.2z"/>
		<path class="st5" d="M396.7,678.7c-1.2,1.2-2.8,1.8-4.7,1.8h-5.5c-0.2,0-0.4-0.1-0.4-0.4v-24.5c0-0.2,0.1-0.4,0.4-0.4h5.2
			c2.1,0,3.7,0.6,4.9,1.7s1.8,2.8,1.8,4.9c0,2.7-1,4.5-3,5.5c0,0-0.1,0-0.1,0.1s0,0,0,0.1c2.1,1.2,3.2,3.3,3.2,6.1
			C398.5,675.9,397.9,677.5,396.7,678.7z M388.7,657.7v8.7c0,0.1,0,0.1,0.1,0.1h2.8c1.3,0,2.3-0.4,3-1.2s1.1-1.8,1.1-3.2
			c0-1.4-0.4-2.6-1.1-3.4s-1.7-1.2-3-1.2h-2.8C388.8,657.6,388.7,657.6,388.7,657.7z M394.8,677c0.7-0.8,1.1-2,1.1-3.6
			c0-1.6-0.4-2.8-1.1-3.6c-0.7-0.9-1.7-1.3-3-1.3h-3c-0.1,0-0.1,0-0.1,0.1v9.5c0,0.1,0,0.1,0.1,0.1h3
			C393.1,678.3,394.1,677.9,394.8,677z"/>
		<path class="st5" d="M417.9,680.2l-0.9-4.5c0,0,0-0.1,0-0.1c0,0-0.1,0-0.1,0h-6.5c0,0-0.1,0-0.1,0c0,0,0,0.1,0,0.1l-0.9,4.5
			c0,0.2-0.2,0.3-0.4,0.3H407c-0.1,0-0.2,0-0.3-0.1s-0.1-0.2,0-0.3l5.4-24.5c0-0.2,0.2-0.3,0.4-0.3h2.2c0.2,0,0.4,0.1,0.4,0.3
			l5.5,24.5v0.1c0,0.2-0.1,0.3-0.3,0.3h-1.9C418.1,680.5,417.9,680.4,417.9,680.2z M410.7,673.5h5.7c0.1,0,0.1,0,0.1-0.1l-2.9-14.2
			c0-0.1,0-0.1-0.1-0.1c0,0,0,0-0.1,0.1l-2.9,14.2C410.6,673.5,410.6,673.5,410.7,673.5z"/>
		<path class="st5" d="M430.7,680.2v-24.5c0-0.2,0.1-0.4,0.4-0.4h1.8c0.2,0,0.4,0.1,0.4,0.4v22.5c0,0.1,0,0.1,0.1,0.1h8.2
			c0.2,0,0.4,0.1,0.4,0.4v1.5c0,0.2-0.1,0.4-0.4,0.4h-10.6C430.9,680.5,430.7,680.4,430.7,680.2z"/>
		<path class="st5" d="M452.2,680.2v-24.5c0-0.2,0.1-0.4,0.4-0.4h5.5c1.9,0,3.3,0.6,4.4,1.8c1.1,1.2,1.7,2.8,1.7,4.9v11.8
			c0,2-0.5,3.7-1.7,4.9c-1.1,1.2-2.6,1.8-4.4,1.8h-5.5C452.3,680.5,452.2,680.4,452.2,680.2z M454.9,678.3l3.2,0
			c1.1,0,1.9-0.4,2.5-1.2c0.6-0.8,1-1.9,1-3.3v-11.6c0-1.4-0.3-2.5-0.9-3.3c-0.6-0.8-1.5-1.2-2.6-1.2h-3.2c-0.1,0-0.1,0-0.1,0.1
			v20.5C454.7,678.3,454.8,678.3,454.9,678.3z"/>
		<path class="st5" d="M478.8,680.2l-4.8-24.5v-0.1c0-0.2,0.1-0.3,0.3-0.3h1.9c0.2,0,0.4,0.1,0.4,0.3l3.4,18.9c0,0,0,0.1,0.1,0.1
			c0,0,0,0,0.1-0.1l2.9-18.9c0-0.2,0.2-0.3,0.4-0.3h1.7c0.2,0,0.3,0.1,0.4,0.3l3.1,18.9c0,0,0,0.1,0.1,0.1c0,0,0,0,0.1-0.1l3.1-18.9
			c0-0.2,0.2-0.3,0.4-0.3h1.9c0.1,0,0.2,0,0.3,0.1s0.1,0.2,0,0.3l-4.5,24.5c0,0.2-0.2,0.3-0.4,0.3h-1.8c-0.2,0-0.3-0.1-0.4-0.3
			l-3-19c0,0,0-0.1-0.1-0.1s0,0,0,0.1l-3,19c0,0.2-0.1,0.3-0.4,0.3h-1.7C478.9,680.5,478.8,680.4,478.8,680.2z"/>
		<path class="st5" d="M505.2,680.2v-24.5c0-0.2,0.1-0.4,0.4-0.4h1.8c0.2,0,0.4,0.1,0.4,0.4v24.5c0,0.2-0.1,0.4-0.4,0.4h-1.8
			C505.3,680.5,505.2,680.4,505.2,680.2z"/>
		<path class="st5" d="M530.5,655.3h1.8c0.2,0,0.4,0.1,0.4,0.4v24.5c0,0.2-0.1,0.4-0.4,0.4h-2.1c-0.2,0-0.3-0.1-0.4-0.3l-7-18.6
			c0-0.1-0.1-0.1-0.1-0.1c0,0-0.1,0-0.1,0.1l0,18.5c0,0.2-0.1,0.4-0.4,0.4h-1.8c-0.2,0-0.4-0.1-0.4-0.4v-24.5c0-0.2,0.1-0.4,0.4-0.4
			h2.1c0.2,0,0.3,0.1,0.4,0.3l7.1,18.7c0,0.1,0.1,0.1,0.1,0.1s0.1,0,0.1-0.1v-18.5C530.2,655.5,530.3,655.3,530.5,655.3z"/>
	</g>
</g>
</svg>
